<svg xmlns="http://www.w3.org/2000/svg" width="900" height="500" font-family="-apple-system,Segoe UI,Helvetica,Arial,sans-serif">
  <style>
    .ttl{font-size:18px;font-weight:700;fill:#222}
    .h{font-size:13px;font-weight:700;fill:#222}
    .lbl{font-size:12px;fill:#222}
    .sub{font-size:11px;fill:#555}
    .tag{font-size:11px;font-weight:700;fill:#fff}
  </style>
  <text x="20" y="30" class="ttl">Why hand-asm beats LLVM by 13% — stack spills, not the reduce</text>

  <!-- register file: 32 slots, all full -->
  <text x="20" y="62" class="h">The compress needs exactly 32 registers — 16 state + 16 message, held and mixed in place:</text>
  <g>
    <rect x="20" y="74" width="416" height="34" rx="5" fill="#2e8b57" opacity="0.18" stroke="#2e8b57"/>
    <rect x="444" y="74" width="416" height="34" rx="5" fill="#3b6ea5" opacity="0.18" stroke="#3b6ea5"/>
  </g>
  <g>
    <g>
      <rect x="26"  y="80" width="22" height="22" rx="3" fill="#2e8b57"/><rect x="51"  y="80" width="22" height="22" rx="3" fill="#2e8b57"/>
      <rect x="77"  y="80" width="22" height="22" rx="3" fill="#2e8b57"/><rect x="102" y="80" width="22" height="22" rx="3" fill="#2e8b57"/>
      <rect x="128" y="80" width="22" height="22" rx="3" fill="#2e8b57"/><rect x="153" y="80" width="22" height="22" rx="3" fill="#2e8b57"/>
      <rect x="179" y="80" width="22" height="22" rx="3" fill="#2e8b57"/><rect x="204" y="80" width="22" height="22" rx="3" fill="#2e8b57"/>
      <rect x="230" y="80" width="22" height="22" rx="3" fill="#2e8b57"/><rect x="255" y="80" width="22" height="22" rx="3" fill="#2e8b57"/>
      <rect x="281" y="80" width="22" height="22" rx="3" fill="#2e8b57"/><rect x="306" y="80" width="22" height="22" rx="3" fill="#2e8b57"/>
      <rect x="332" y="80" width="22" height="22" rx="3" fill="#2e8b57"/><rect x="357" y="80" width="22" height="22" rx="3" fill="#2e8b57"/>
      <rect x="383" y="80" width="22" height="22" rx="3" fill="#2e8b57"/><rect x="408" y="80" width="22" height="22" rx="3" fill="#2e8b57"/>
    </g>
    <g>
      <rect x="450" y="80" width="22" height="22" rx="3" fill="#3b6ea5"/><rect x="475" y="80" width="22" height="22" rx="3" fill="#3b6ea5"/>
      <rect x="501" y="80" width="22" height="22" rx="3" fill="#3b6ea5"/><rect x="526" y="80" width="22" height="22" rx="3" fill="#3b6ea5"/>
      <rect x="552" y="80" width="22" height="22" rx="3" fill="#3b6ea5"/><rect x="577" y="80" width="22" height="22" rx="3" fill="#3b6ea5"/>
      <rect x="603" y="80" width="22" height="22" rx="3" fill="#3b6ea5"/><rect x="628" y="80" width="22" height="22" rx="3" fill="#3b6ea5"/>
      <rect x="654" y="80" width="22" height="22" rx="3" fill="#3b6ea5"/><rect x="679" y="80" width="22" height="22" rx="3" fill="#3b6ea5"/>
      <rect x="705" y="80" width="22" height="22" rx="3" fill="#3b6ea5"/><rect x="730" y="80" width="22" height="22" rx="3" fill="#3b6ea5"/>
      <rect x="756" y="80" width="22" height="22" rx="3" fill="#3b6ea5"/><rect x="781" y="80" width="22" height="22" rx="3" fill="#3b6ea5"/>
      <rect x="807" y="80" width="22" height="22" rx="3" fill="#3b6ea5"/><rect x="832" y="80" width="22" height="22" rx="3" fill="#3b6ea5"/>
    </g>
  </g>
  <text x="228" y="123" text-anchor="middle" class="sub" fill="#2e8b57" font-weight="700">16 = hash state</text>
  <text x="652" y="123" text-anchor="middle" class="sub" fill="#3b6ea5" font-weight="700">16 = message words (held in registers — no reload)</text>
  <text x="440" y="148" text-anchor="middle" class="lbl" font-weight="700">Both LLVM and the hand-asm do this. The difference is what happens when temporaries are needed.</text>

  <!-- timelines -->
  <text x="20" y="190" class="h">Same kernel, same 32 registers — the only difference is spills to the stack (measured via code_native / the .S):</text>

  <!-- LLVM -->
  <text x="20" y="222" class="lbl" font-weight="700">Julia / LLVM  (and pure-Rust — same compiler):</text>
  <rect x="20" y="232" width="680" height="40" rx="6" fill="#c0392b"/>
  <text x="360" y="257" text-anchor="middle" class="tag">COMPRESS — scheduled for max ILP → live set overflows 32 → 57 stack spills</text>
  <g stroke="#fff" stroke-width="3" opacity="0.85">
    <line x1="80" y1="234" x2="80" y2="270"/><line x1="170" y1="234" x2="170" y2="270"/>
    <line x1="260" y1="234" x2="260" y2="270"/><line x1="450" y1="234" x2="450" y2="270"/>
    <line x1="560" y1="234" x2="560" y2="270"/><line x1="650" y1="234" x2="650" y2="270"/>
  </g>
  <text x="715" y="257" class="sub" fill="#c0392b" font-weight="700">spills ≈ the 13%</text>

  <!-- asm -->
  <text x="20" y="312" class="lbl" font-weight="700">blake3 hand-written assembly:</text>
  <rect x="20" y="322" width="680" height="40" rx="6" fill="#708090"/>
  <text x="360" y="347" text-anchor="middle" class="tag">COMPRESS — hand-scheduled so live set never exceeds 32 → ~0 spills</text>
  <text x="715" y="347" class="sub" fill="#708090" font-weight="700">clean</text>

  <!-- takeaway -->
  <rect x="20" y="388" width="840" height="98" rx="10" fill="#fbfcfe" stroke="#d6dde6"/>
  <text x="38" y="414" class="h">The 13% is those 57 stack round-trips — pure scheduling, and measured compress-only (no reduce).</text>
  <text x="38" y="437" class="lbl">Both keep all 16 message words in registers (register-to-register, in place). LLVM schedules aggressively for</text>
  <text x="38" y="456" class="lbl">instruction-level parallelism, overflows the 32-register file, and spills 57× to the stack; the hand-asm picks a</text>
  <text x="38" y="478" class="sub" fill="#2e8b57" font-weight="700">tighter schedule that fits exactly, zero spills. We stay pure Julia: 87% of hand-asm, faster than every compiler (incl. Rust).</text>
</svg>
